<svg width="347" height="257" viewBox="0 0 347 257" fill="none" xmlns="http://www.w3.org/2000/svg">
<path d="M138.852 53.2959H137.586V19.5381C137.586 16.9723 137.067 14.4317 136.058 12.0612C135.05 9.69073 133.571 7.53687 131.708 5.72259C129.844 3.90831 127.631 2.46914 125.196 1.48726C122.761 0.505373 120.151 2.17393e-06 117.515 0H44.0447C38.7216 -9.87833e-06 33.6165 2.05845 29.8525 5.72254C26.0885 9.38664 23.9739 14.3562 23.9739 19.538V204.736C23.9739 207.302 24.493 209.842 25.5017 212.213C26.5103 214.583 27.9887 216.737 29.8525 218.551C31.7162 220.366 33.9288 221.805 36.3639 222.787C38.799 223.769 41.4089 224.274 44.0447 224.274H117.515C122.838 224.274 127.943 222.216 131.707 218.551C135.471 214.887 137.586 209.918 137.586 204.736V77.3252H138.852V53.2959Z" fill="#3F3D56"/>
<path d="M118.325 5.08313H108.735C109.176 6.13571 109.344 7.27771 109.225 8.40854C109.106 9.53938 108.703 10.6243 108.052 11.5678C107.4 12.5113 106.52 13.2844 105.49 13.819C104.459 14.3535 103.309 14.6332 102.142 14.6333H60.0513C58.8836 14.6332 57.7337 14.3535 56.7032 13.819C55.6726 13.2844 54.7928 12.5113 54.1415 11.5678C53.4901 10.6243 53.0871 9.53938 52.9679 8.40855C52.8488 7.27772 53.0171 6.13571 53.4582 5.08313H44.5008C42.5324 5.08313 40.5834 5.46053 38.7648 6.19379C36.9463 6.92704 35.294 8.0018 33.9022 9.35668C32.5103 10.7116 31.4063 12.32 30.653 14.0903C29.8998 15.8605 29.5121 17.7579 29.5121 19.6739V204.6C29.5121 206.516 29.8998 208.413 30.653 210.184C31.4063 211.954 32.5103 213.562 33.9022 214.917C35.294 216.272 36.9463 217.347 38.7648 218.08C40.5833 218.813 42.5324 219.191 44.5007 219.191H118.325C120.294 219.191 122.243 218.813 124.061 218.08C125.88 217.347 127.532 216.272 128.924 214.917C130.316 213.562 131.42 211.954 132.173 210.184C132.926 208.413 133.314 206.516 133.314 204.6V19.6739C133.314 17.7579 132.926 15.8605 132.173 14.0903C131.42 12.32 130.316 10.7116 128.924 9.35668C127.532 8.0018 125.88 6.92704 124.061 6.19379C122.243 5.46053 120.294 5.08313 118.325 5.08313Z" fill="white"/>
<path d="M81.4129 143.059C101.24 143.059 117.314 127.412 117.314 108.111C117.314 88.8099 101.24 73.1632 81.4129 73.1632C61.5854 73.1632 45.5121 88.8099 45.5121 108.111C45.5121 127.412 61.5854 143.059 81.4129 143.059Z" fill="#160AE0"/>
<path d="M77.8554 121.443C77.0477 121.444 76.2615 121.19 75.6153 120.718L75.5752 120.689L67.1381 114.406C66.7473 114.114 66.4194 113.751 66.173 113.336C65.9266 112.921 65.7666 112.462 65.7022 111.987C65.6377 111.512 65.67 111.029 65.7972 110.566C65.9244 110.103 66.1441 109.669 66.4437 109.289C66.7433 108.908 67.1169 108.589 67.5432 108.349C67.9695 108.109 68.4401 107.954 68.9283 107.891C69.4164 107.828 69.9125 107.86 70.3881 107.983C70.8638 108.107 71.3097 108.321 71.7005 108.613L77.1654 112.692L90.0793 96.2918C90.3788 95.9116 90.7523 95.5925 91.1784 95.3527C91.6045 95.113 92.075 94.9573 92.5629 94.8946C93.0509 94.8318 93.5467 94.8633 94.0222 94.9871C94.4976 95.1109 94.9434 95.3246 95.334 95.6161L95.3351 95.6169L95.2549 95.7253L95.3373 95.6169C96.1253 96.2065 96.6408 97.0763 96.7708 98.0355C96.9008 98.9946 96.6345 99.9648 96.0305 100.733L80.8409 120.015C80.4895 120.459 80.0377 120.819 79.5205 121.066C79.0033 121.313 78.4347 121.44 77.8587 121.438L77.8554 121.443Z" fill="white"/>
<path d="M295.146 227.741C295.583 227.053 296.097 226.416 296.679 225.839C296.919 225.597 297.172 225.369 297.433 225.146C299.021 223.771 300.956 222.832 303.04 222.426C305.123 222.02 307.281 222.162 309.289 222.836C311.298 223.511 313.086 224.694 314.47 226.264C315.853 227.835 316.782 229.735 317.16 231.771C318.914 225.459 314.35 219.241 309.761 214.466C305.169 209.692 299.922 204.454 299.948 197.912C299.961 194.272 301.79 191.025 304.552 188.617C304.637 188.544 304.722 188.471 304.809 188.401C308.147 185.616 312.442 184.159 316.835 184.321C324.998 184.747 332.124 190.087 337.074 196.421C345.04 206.613 348.531 220.92 342.954 232.522C338.048 242.726 327.586 248.785 316.908 253.657C315.417 254.337 313.929 254.997 312.444 255.636C312.434 255.639 312.424 255.645 312.414 255.648C312.342 255.679 312.271 255.709 312.204 255.741C311.897 255.872 311.591 256.004 311.287 256.134L311.427 256.224L311.866 256.5C311.714 256.411 311.564 256.323 311.411 256.234C311.366 256.207 311.318 256.181 311.273 256.154C306.029 253.091 300.711 249.85 297.088 245.068C293.331 240.102 291.82 232.99 295.146 227.741Z" fill="#F1F1F1"/>
<path d="M330.136 216.21C331.297 218.781 332.067 221.504 332.421 224.292C332.7 226.778 332.595 229.291 332.111 231.746C331.069 236.793 328.798 241.522 325.488 245.537C322.991 248.584 320.108 251.313 316.908 253.657C315.417 254.337 313.929 254.997 312.444 255.636C312.434 255.639 312.424 255.645 312.414 255.648C312.342 255.679 312.271 255.709 312.204 255.741C311.897 255.872 311.591 256.004 311.287 256.134L311.428 256.224L311.867 256.5C311.714 256.41 311.564 256.323 311.412 256.234C311.366 256.207 311.318 256.181 311.273 256.154C312.427 252.224 312.597 248.082 311.768 244.075C310.939 240.068 309.136 236.313 306.509 233.124C303.868 229.976 300.5 227.48 296.679 225.839C296.919 225.597 297.172 225.369 297.433 225.146C298.905 225.804 300.314 226.587 301.644 227.487C306.4 230.687 309.971 235.293 311.829 240.622C313.488 245.457 313.695 250.653 312.427 255.599C312.69 255.431 312.954 255.259 313.211 255.088C318.097 251.881 322.599 248.029 325.991 243.306C328.916 239.314 330.788 234.683 331.442 229.821C332.092 224.509 330.727 219.286 328.291 214.547C325.601 209.477 322.211 204.789 318.217 200.613C314.204 196.322 309.668 192.524 304.708 189.306C304.596 189.232 304.517 189.12 304.488 188.992C304.459 188.864 304.482 188.73 304.552 188.617C304.605 188.515 304.698 188.437 304.809 188.401C304.866 188.387 304.925 188.386 304.983 188.397C305.04 188.408 305.094 188.432 305.141 188.466C305.753 188.864 306.36 189.265 306.96 189.679C311.955 193.122 316.491 197.155 320.464 201.687C324.304 206.055 327.798 210.908 330.136 216.21Z" fill="white"/>
<path d="M223.213 16.2273C227.423 16.2273 230.837 12.9043 230.837 8.80529C230.837 4.70624 227.423 1.3833 223.213 1.3833C219.002 1.3833 215.588 4.70624 215.588 8.80529C215.588 12.9043 219.002 16.2273 223.213 16.2273Z" fill="#F1F1F1"/>
<path d="M318.017 115.551C320.584 115.551 322.666 113.525 322.666 111.026C322.666 108.527 320.584 106.501 318.017 106.501C315.45 106.501 313.369 108.527 313.369 111.026C313.369 113.525 315.45 115.551 318.017 115.551Z" fill="#F1F1F1"/>
<path d="M181.975 127.966C184.542 127.966 186.623 125.94 186.623 123.441C186.623 120.942 184.542 118.916 181.975 118.916C179.407 118.916 177.326 120.942 177.326 123.441C177.326 125.94 179.407 127.966 181.975 127.966Z" fill="#F1F1F1"/>
<path d="M184.599 257H346.575C346.688 257 346.796 256.956 346.875 256.879C346.955 256.801 347 256.696 347 256.586C347 256.476 346.955 256.371 346.875 256.294C346.796 256.216 346.688 256.172 346.575 256.172H184.599C184.486 256.172 184.378 256.216 184.299 256.294C184.219 256.371 184.174 256.476 184.174 256.586C184.174 256.696 184.219 256.801 184.299 256.879C184.378 256.956 184.486 257 184.599 257Z" fill="#CBCBCB"/>
<path d="M328.7 39.9922C328.913 38.5223 328.564 37.0275 327.72 35.791C326.876 34.5545 325.596 33.6624 324.121 33.2835C322.647 32.9047 321.081 33.0656 319.72 33.7356C318.359 34.4056 317.298 35.5382 316.738 36.9189L303.594 51.5875L307.451 62.0731L320.67 44.9334C321.532 45.2024 322.445 45.284 323.343 45.1725C324.242 45.0609 325.104 44.759 325.87 44.2879C326.635 43.8168 327.286 43.188 327.775 42.4458C328.264 41.7036 328.579 40.8661 328.7 39.9922Z" fill="#FFB7B7"/>
<path d="M274.216 97.0678L317.847 51.7393L311.962 42.6313L257.238 87.6846L274.216 97.0678Z" fill="#3F3D56"/>
<path d="M264.478 69.5266C272.931 69.5266 279.783 62.8563 279.783 54.628C279.783 46.3998 272.931 39.7295 264.478 39.7295C256.026 39.7295 249.174 46.3998 249.174 54.628C249.174 62.8563 256.026 69.5266 264.478 69.5266Z" fill="#2F2E41"/>
<path d="M265.709 46.2117C269.002 42.9606 272.987 40.4519 277.384 38.862C280.207 37.8442 283.278 37.2154 286.229 37.7934C289.18 38.3714 291.97 40.3584 292.793 43.1766C293.466 45.4811 292.771 47.9623 291.727 50.1316C290.682 52.3009 289.288 54.3125 288.443 56.5627C287.581 58.8588 287.322 61.328 287.689 63.7463C288.056 66.1646 289.037 68.4554 290.545 70.4107C292.052 72.366 294.037 73.9239 296.319 74.943C298.602 75.9621 301.11 76.4101 303.615 76.2463C300.716 76.6247 298.044 77.951 295.21 78.6569C292.376 79.3628 289.032 79.315 286.926 77.3387C284.698 75.2478 284.653 71.8481 284.761 68.8372C284.921 64.3615 285.081 59.8857 285.241 55.4099C285.323 53.1274 285.393 50.7717 284.547 48.6412C283.702 46.5108 281.692 44.6452 279.346 44.6646C277.568 44.6793 275.994 45.7279 274.568 46.762C273.142 47.7961 271.633 48.8994 269.861 49.0532C268.09 49.2071 266.068 47.9311 266.201 46.2049L265.709 46.2117Z" fill="#2F2E41"/>
<path d="M206.35 154.665C204.88 155.062 203.312 154.921 201.943 154.268C200.573 153.615 199.497 152.496 198.919 151.122C198.34 149.749 198.3 148.217 198.804 146.816C199.309 145.415 200.324 144.243 201.657 143.522L214.879 128.92L226.062 131.272L210.333 146.269C210.719 147.066 210.922 147.936 210.926 148.818C210.929 149.7 210.735 150.571 210.355 151.372C209.975 152.172 209.42 152.882 208.728 153.451C208.036 154.02 207.224 154.434 206.35 154.665H206.35Z" fill="#FFB7B7"/>
<path d="M249.85 102.388L216.896 142.656L206.851 138.166L245.584 79.4639L249.85 102.388Z" fill="#3F3D56"/>
<path d="M223.555 223.979L215.701 223.859L216.646 249.918H223.554L223.555 223.979Z" fill="#FFB7B7"/>
<path d="M225.316 247.722L211.711 247.722H211.711C209.412 247.722 207.206 248.611 205.58 250.194C203.955 251.776 203.041 253.923 203.041 256.161V256.436L225.316 256.436L225.316 247.722Z" fill="#2F2E41"/>
<path d="M275.556 217.068L266.977 222.43L284.138 242.528L289.952 238.895L275.556 217.068Z" fill="#FFB7B7"/>
<path d="M290.216 236.121L278.768 243.276L278.767 243.276C276.832 244.486 275.47 246.394 274.98 248.581C274.491 250.768 274.913 253.054 276.156 254.938L276.308 255.169L295.052 243.454L290.216 236.121Z" fill="#2F2E41"/>
<path d="M278.613 137.497C278.613 137.497 259.55 75.8637 253.424 75.0309C247.297 74.198 237.427 90.8453 237.427 90.8453C224.629 106.74 211.432 158.228 211.432 158.228C211.432 158.228 233.432 159.569 249.513 167.897C265.594 176.226 284.573 167.476 284.573 167.476L278.613 137.497Z" fill="#3F3D56"/>
<path opacity="0.1" d="M278.613 137.497C278.613 137.497 259.55 75.8637 253.424 75.0308C247.297 74.1979 239.934 91.0142 239.934 91.0142C233.557 116.673 211.432 158.228 211.432 158.228C211.432 158.228 233.432 159.568 249.513 167.897C265.594 176.226 284.573 167.476 284.573 167.476L278.613 137.497Z" fill="black"/>
<path d="M262.973 119.057V150.027L266.717 194.89L285.423 228.826L276.495 235.033L250.987 202.753L240.899 170.701L225.054 241.655L213.151 240.827L221.418 142.451L237.106 114.76L262.973 119.057Z" fill="#2F2E41"/>
<path d="M243.753 89.1015C237.801 94.8954 243.328 101.103 243.328 101.103L236.526 116.002L263.309 123.037L272.669 82.3234L266.292 75.7018C253.538 75.2879 253.531 75.0306 253.531 75.0306C251.297 77.1594 243.753 89.1015 243.753 89.1015Z" fill="#160AE0"/>
<path d="M273.748 78.1054C272.531 77.2314 271.149 76.6009 269.68 76.2506C268.212 75.9003 266.686 75.8371 265.193 76.0647C263.699 76.2923 262.266 76.8062 260.978 77.5766C259.69 78.3469 258.571 79.3584 257.687 80.5526C250.954 89.6789 244.728 104.416 253.306 122.795C267.08 152.306 279.067 167.414 283.939 167.412C284.152 167.414 284.364 167.381 284.566 167.316C287.565 166.326 291.902 161.385 292.687 157.031C292.968 155.473 292.901 153.302 290.986 151.812C285.487 147.53 275.615 134.197 272.535 116.649C270.833 106.953 274.134 98.1205 277.202 92.4186C278.498 90.0593 278.877 87.3243 278.27 84.7149C277.663 82.1056 276.11 79.7967 273.896 78.2115V78.2115L273.748 78.1054Z" fill="#3F3D56"/>
<path d="M265.266 68.063C270.725 65.1577 272.732 58.4941 269.747 53.1795C266.763 47.8648 259.917 45.9116 254.458 48.8168C248.998 51.7221 246.992 58.3857 249.976 63.7004C252.961 69.015 259.806 70.9682 265.266 68.063Z" fill="#FFB7B7"/>
<path d="M244.018 57.6106H260.286L260.453 55.337L261.287 57.6106H263.792L264.122 53.1044L265.775 57.6106H270.622V57.3874C270.619 54.2502 269.337 51.2426 267.058 49.0242C264.779 46.8059 261.689 45.5581 258.467 45.5546H256.173C252.95 45.5581 249.861 46.8059 247.582 49.0242C245.303 51.2425 244.021 54.2502 244.018 57.3874V57.6106Z" fill="#2F2E41"/>
<path d="M268.164 65.783L275.107 63.5901V47.1787H261.994L262.318 47.4942C266.835 51.8856 271.859 67.4654 268.164 65.783Z" fill="#2F2E41"/>
</svg>
