<svg width="82" height="23" viewBox="0 0 82 23" fill="none" xmlns="http://www.w3.org/2000/svg">
<path d="M37.9978 9.03466V18.4417C37.9978 19.0574 38.1327 19.5043 38.4025 19.7824C38.6916 20.0406 39.1734 20.1697 39.848 20.1697H41.8718V23H39.2698C37.7857 23 36.6486 22.6425 35.8584 21.9275C35.0682 21.2124 34.673 20.0505 34.673 18.4417V9.03466H32.7939V5.68297H34.673V0.655449H37.9978V5.68297H41.8718V9.03466H37.9978Z" fill="#133386"/>
<path d="M70.3626 9.03466H67.4137V23H64.089V9.03466H62.2099V5.68297H64.089V5.42228C64.089 3.5354 64.5709 2.16494 65.5346 1.31088C66.5175 0.43696 68.0498 0 70.1313 0V2.83031C69.1291 2.83031 68.4256 3.02893 68.0209 3.42616C67.6161 3.80354 67.4137 4.46891 67.4137 5.42228V5.68297H70.3626V9.03466Z" fill="#133386"/>
<path d="M76.5793 9.03466V23H73.2835V9.03466H76.5793Z" fill="#133386"/>
<path d="M59.3342 5.68297V23H56.0384V20.8115C55.518 21.491 54.8338 22.0307 53.9857 22.4304C53.157 22.8101 52.2704 23 51.326 23C50.0732 23 48.9457 22.7302 47.9435 22.1906C46.9605 21.6509 46.1799 20.8515 45.6017 19.7922C45.0428 18.7329 44.7633 17.4538 44.7633 15.9549V5.68297H48.0302V15.4452C48.0302 16.9242 48.3867 18.0634 49.0999 18.8629C49.813 19.6423 50.7863 20.032 52.0198 20.032C53.2533 20.032 54.2267 19.6423 54.9398 18.8629C55.6722 18.0634 56.0384 16.9242 56.0384 15.4452V5.68297H59.3342Z" fill="#133386"/>
<path d="M30.9089 13.9794C30.9089 14.605 30.8703 15.17 30.7933 15.6745H18.6219C18.7183 17.0064 19.1905 18.076 20.0385 18.8832C20.8866 19.6904 21.9274 20.094 23.1609 20.094C24.9341 20.094 26.1868 19.3171 26.9192 17.7632H30.4752C29.9934 19.2969 29.1164 20.5582 27.8444 21.547C26.5916 22.5157 25.0304 23 23.1609 23C21.6383 23 20.2698 22.6468 19.0556 21.9405C17.8606 21.214 16.9162 20.205 16.2224 18.9135C15.5478 17.6018 15.2105 16.0882 15.2105 14.3729C15.2105 12.6576 15.5381 11.1541 16.1934 9.8626C16.868 8.55087 17.8028 7.54186 18.9978 6.83554C20.212 6.12923 21.5997 5.77608 23.1609 5.77608C24.6642 5.77608 26.0037 6.11914 27.1794 6.80527C28.3551 7.4914 29.2706 8.46006 29.9259 9.71124C30.5812 10.9422 30.9089 12.365 30.9089 13.9794ZM27.4685 12.8896C27.4493 11.6183 27.0156 10.5992 26.1676 9.83232C25.3195 9.06547 24.2691 8.68204 23.0163 8.68204C21.8792 8.68204 20.9059 9.06547 20.0964 9.83232C19.2869 10.579 18.805 11.5981 18.6508 12.8896H27.4685Z" fill="#133386"/>
<path d="M6.64942 23C5.39663 23 4.26912 22.7679 3.26689 22.3038C2.28393 21.8194 1.50335 21.1737 0.925137 20.3665C0.346926 19.5391 0.0385474 18.6209 0 17.6118H3.41144C3.46926 18.3182 3.78728 18.9135 4.36549 19.3978C4.96297 19.862 5.70501 20.094 6.5916 20.094C7.51673 20.094 8.22986 19.9124 8.73097 19.5492C9.25136 19.1657 9.51156 18.6814 9.51156 18.0962C9.51156 17.4706 9.22245 17.0064 8.64424 16.7037C8.08531 16.401 7.18908 16.0681 5.95557 15.7048C4.7606 15.3617 3.78728 15.0288 3.0356 14.7059C2.28393 14.383 1.62863 13.8886 1.06969 13.2226C0.530026 12.5567 0.260195 11.6788 0.260195 10.5891C0.260195 9.70115 0.510752 8.89394 1.01187 8.16745C1.51298 7.42077 2.22611 6.83554 3.15125 6.41176C4.09566 5.98797 5.17498 5.77608 6.38922 5.77608C8.20095 5.77608 9.65611 6.2604 10.7547 7.22906C11.8726 8.17754 12.4701 9.47917 12.5472 11.134H9.25136C9.19354 10.3873 8.90444 9.79196 8.38405 9.348C7.86366 8.90403 7.16017 8.68204 6.27358 8.68204C5.40627 8.68204 4.74132 8.85358 4.27876 9.19664C3.81619 9.53971 3.5849 9.99377 3.5849 10.5588C3.5849 11.0028 3.73909 11.3761 4.04747 11.6788C4.35585 11.9815 4.73169 12.2237 5.17498 12.4053C5.61828 12.5668 6.27358 12.7787 7.1409 13.041C8.29732 13.3639 9.24173 13.6969 9.97413 14.0399C10.7258 14.3628 11.3715 14.8471 11.9111 15.4929C12.4508 16.1387 12.7303 16.9963 12.7495 18.0659C12.7495 19.0144 12.499 19.862 11.9979 20.6086C11.4967 21.3553 10.7836 21.9405 9.85849 22.3643C8.95262 22.7881 7.88293 23 6.64942 23Z" fill="#133386"/>
<path d="M73.5793 7.42466C73.9655 7.80822 74.4437 8 75.0138 8C75.5655 8 76.0345 7.80822 76.4207 7.42466C76.8069 7.0411 77 6.56621 77 6C77 5.43379 76.8069 4.9589 76.4207 4.57534C76.0345 4.19178 75.5655 4 75.0138 4C74.4437 4 73.9655 4.19178 73.5793 4.57534C73.1931 4.9589 73 5.43379 73 6C73 6.56621 73.1931 7.0411 73.5793 7.42466Z" fill="#3FE3C4"/>
</svg>
